Coordinates
version=1
nRows=60
nColumns=12
inDegrees=yes

Units are S.I. units (second, meters, Newtons, ...)
Angles are in degrees

endheader
time	SC_y	SC_z	SC_x	AC_y	AC_z	AC_x	GH_y	GH_z	GH_yy	EL_x	PS_y
       0.0              -33.85           8.11          39.08          58.05         -9.741          5.823         -48.48          51.24          161.5          47.57          113.9
   0.01717              -33.85          8.113          39.08          58.05         -9.742          5.823         -48.49          51.24          161.5          47.58          113.9
   0.03434              -33.85          8.115          39.09          58.05         -9.743          5.824         -48.51          51.25          161.5          47.59          113.9
   0.05151              -33.84          8.118           39.1          58.05         -9.744          5.824         -48.52          51.25          161.5          47.61          113.9
   0.06868              -33.84          8.121           39.1          58.04         -9.746          5.825         -48.54          51.26          161.5          47.62          113.9
   0.08585              -33.84          8.124          39.11          58.04         -9.747          5.826         -48.56          51.26          161.4          47.63          113.9
     0.103              -33.83          8.127          39.12          58.04         -9.749          5.827         -48.58          51.26          161.4          47.65          113.9
    0.1202              -33.83           8.13          39.13          58.04         -9.751          5.827          -48.6          51.27          161.4          47.66          113.9
    0.1374              -33.83          8.134          39.13          58.04         -9.753          5.828         -48.63          51.27          161.4          47.68          113.9
    0.1545              -33.82          8.138          39.14          58.03         -9.755          5.829         -48.65          51.28          161.3           47.7          113.9
    0.1717              -33.82          8.142          39.15          58.03         -9.757           5.83         -48.68          51.28          161.3          47.72          113.9
    0.1889              -33.81          8.146          39.17          58.03         -9.759          5.831          -48.7          51.29          161.3          47.74          113.9
     0.206              -33.81          8.151          39.18          58.03         -9.762          5.833         -48.74           51.3          161.2          47.76          113.9
    0.2232               -33.8          8.156          39.19          58.02         -9.765          5.834         -48.77           51.3          161.2          47.79          113.9
    0.2404              -33.79          8.162           39.2          58.02         -9.768          5.835          -48.8          51.31          161.1          47.81          113.9
    0.2576              -33.79          8.168          39.22          58.02         -9.771          5.837         -48.84          51.32          161.1          47.84          113.9
    0.2747              -33.78          8.175          39.24          58.01         -9.774          5.838         -48.89          51.33          161.1          47.87          114.0
    0.2919              -33.77          8.182          39.25          58.01         -9.778           5.84         -48.93          51.34          161.0          47.91          114.0
    0.3091              -33.76           8.19          39.27           58.0         -9.782          5.842         -48.98          51.35          160.9          47.94          114.0
    0.3262              -33.75          8.199           39.3           58.0         -9.787          5.844         -49.04          51.36          160.9          47.98          114.0
    0.3434              -33.74          8.208          39.32          57.99         -9.792          5.846          -49.1          51.37          160.8          48.03          114.0
    0.3606              -33.73          8.219          39.35          57.99         -9.797          5.849         -49.17          51.38          160.7          48.08          114.0
    0.3777              -33.71           8.23          39.37          57.98         -9.804          5.852         -49.24           51.4          160.6          48.13          114.0
    0.3949               -33.7          8.243          39.41          57.97          -9.81          5.855         -49.32          51.42          160.5          48.19          114.0
    0.4121              -33.68          8.257          39.44          57.96         -9.818          5.858         -49.41          51.44          160.4          48.26          114.1
    0.4293              -33.67          8.273          39.48          57.96         -9.826          5.862         -49.51          51.46          160.3          48.33          114.1
    0.4464              -33.64          8.291          39.53          57.95         -9.836          5.867         -49.63          51.48          160.2          48.41          114.1
    0.4636              -33.62          8.311          39.58          57.93         -9.846          5.872         -49.75          51.51          160.0          48.51          114.1
    0.4808               -33.6          8.334          39.63          57.92         -9.858          5.877          -49.9          51.54          159.8          48.61          114.1
    0.4979              -33.57           8.36           39.7          57.91         -9.872          5.883         -50.06          51.57          159.6          48.73          114.2
    0.5151              -33.53          8.389          39.77          57.89         -9.887          5.891         -50.25          51.61          159.4          48.87          114.2
    0.5323              -33.49          8.423          39.85          57.87         -9.905          5.899         -50.46          51.65          159.2          49.03          114.3
    0.5494              -33.45          8.462          39.95          57.85         -9.925          5.908         -50.71          51.71          158.9          49.21          114.3
    0.5666               -33.4          8.507          40.06          57.82         -9.949          5.919          -51.0          51.77          158.5          49.42          114.4
    0.5838              -33.34           8.56          40.19          57.79         -9.977          5.932         -51.33          51.84          158.1          49.67          114.4
     0.601              -33.26          8.623          40.35          57.75         -10.01          5.947         -51.73          51.92          157.6          49.96          114.5
    0.6181              -33.18          8.697          40.53          57.71         -10.05          5.966          -52.2          52.02          157.1           50.3          114.6
    0.6353              -33.08          8.786          40.75          57.66          -10.1          5.987         -52.77          52.13          156.4          50.72          114.7
    0.6525              -32.95          8.894          41.02           57.6         -10.15          6.013         -53.45          52.28          155.6          51.22          114.8
    0.6696               -32.8          9.025          41.35          57.52         -10.22          6.045         -54.28          52.45          154.6          51.83          115.0
    0.6868              -32.61          9.187          41.75          57.43         -10.31          6.085         -55.31          52.66          153.3          52.58          115.2
     0.704              -32.38           9.39          42.25          57.31         -10.41          6.134          -56.6          52.93          151.8          53.53          115.5
    0.7212              -32.09          9.645          42.89          57.17         -10.55          6.196         -58.22          53.27          149.9          54.71          115.8
    0.7383              -31.71          9.969          43.69          56.98         -10.72          6.275         -60.27           53.7          147.4          56.22          116.2
    0.7555              -31.24          10.38          44.72          56.74         -10.94          6.376         -62.91          54.24          144.2          58.15          116.7
    0.7727              -30.62          10.92          46.04          56.44         -11.22          6.506         -66.29          54.95          140.2          60.63          117.3
    0.7898              -29.84           11.6          47.73          56.04         -11.57          6.672          -70.6          55.85          135.0           63.8          118.2
     0.807              -28.86          12.45          49.85          55.55         -12.02           6.88         -76.03          56.97          128.5          67.78          119.2
    0.8242              -27.66          13.49          52.44          54.95         -12.57          7.134         -82.65          58.35          120.6          72.63          120.5
    0.8413              -26.27           14.7          55.44          54.26          -13.2          7.428         -90.31          59.95          111.4          78.25          122.0
    0.8585              -24.76          16.01          58.68           53.5         -13.89          7.747         -98.61          61.67          101.5          84.34          123.6
    0.8757              -23.26          17.32          61.93          52.75         -14.58          8.066         -106.9           63.4           91.5          90.42          125.2
    0.8929              -21.87          18.52          64.93          52.06         -15.21           8.36         -114.6           65.0          82.31          96.05          126.7
      0.91              -20.67          19.57          67.51          51.46         -15.76          8.614         -121.2          66.37          74.39          100.9          128.0
    0.9272              -19.68          20.42          69.63          50.97         -16.21          8.822         -126.6           67.5          67.88          104.9          129.0
    0.9444               -18.9           21.1          71.32          50.57         -16.57          8.988         -130.9           68.4          62.71          108.0          129.9
    0.9615              -18.29          21.63          72.64          50.27         -16.85          9.118         -134.3           69.1          58.66          110.5          130.5
    0.9787              -17.81          22.05          73.67          50.03         -17.07          9.219         -137.0          69.65           55.5          112.4          131.1
    0.9959              -17.44          22.37          74.48          49.84         -17.24          9.298         -139.0          70.08          53.04          114.0          131.5
     1.013              -17.14          22.63          75.11           49.7         -17.37           9.36         -140.6          70.41           51.1          115.1          131.8
